<svg id="visual" viewBox="0 0 1920 1080" width="1920" height="1080" xmlns="http://www.w3.org/2000/svg" xmlns:xlink="http://www.w3.org/1999/xlink" version="1.1"><rect x="0" y="0" width="1920" height="1080" fill="#001220"></rect><path d="M0 802L45.7 801.7C91.3 801.3 182.7 800.7 274.2 798.3C365.7 796 457.3 792 548.8 768C640.3 744 731.7 700 823 687.3C914.3 674.7 1005.7 693.3 1097 710.7C1188.3 728 1279.7 744 1371.2 755.3C1462.7 766.7 1554.3 773.3 1645.8 764.8C1737.3 756.3 1828.7 732.7 1874.3 720.8L1920 709L1920 1081L1874.3 1081C1828.7 1081 1737.3 1081 1645.8 1081C1554.3 1081 1462.7 1081 1371.2 1081C1279.7 1081 1188.3 1081 1097 1081C1005.7 1081 914.3 1081 823 1081C731.7 1081 640.3 1081 548.8 1081C457.3 1081 365.7 1081 274.2 1081C182.7 1081 91.3 1081 45.7 1081L0 1081Z" fill="#fa7268"></path><path d="M0 799L45.7 800.2C91.3 801.3 182.7 803.7 274.2 812.2C365.7 820.7 457.3 835.3 548.8 825.3C640.3 815.3 731.7 780.7 823 779.7C914.3 778.7 1005.7 811.3 1097 824.3C1188.3 837.3 1279.7 830.7 1371.2 810.5C1462.7 790.3 1554.3 756.7 1645.8 760.5C1737.3 764.3 1828.7 805.7 1874.3 826.3L1920 847L1920 1081L1874.3 1081C1828.7 1081 1737.3 1081 1645.8 1081C1554.3 1081 1462.7 1081 1371.2 1081C1279.7 1081 1188.3 1081 1097 1081C1005.7 1081 914.3 1081 823 1081C731.7 1081 640.3 1081 548.8 1081C457.3 1081 365.7 1081 274.2 1081C182.7 1081 91.3 1081 45.7 1081L0 1081Z" fill="#ef5f67"></path><path d="M0 851L45.7 841.7C91.3 832.3 182.7 813.7 274.2 805.2C365.7 796.7 457.3 798.3 548.8 799.7C640.3 801 731.7 802 823 808C914.3 814 1005.7 825 1097 837.5C1188.3 850 1279.7 864 1371.2 876.2C1462.7 888.3 1554.3 898.7 1645.8 893.3C1737.3 888 1828.7 867 1874.3 856.5L1920 846L1920 1081L1874.3 1081C1828.7 1081 1737.3 1081 1645.8 1081C1554.3 1081 1462.7 1081 1371.2 1081C1279.7 1081 1188.3 1081 1097 1081C1005.7 1081 914.3 1081 823 1081C731.7 1081 640.3 1081 548.8 1081C457.3 1081 365.7 1081 274.2 1081C182.7 1081 91.3 1081 45.7 1081L0 1081Z" fill="#e34c67"></path><path d="M0 945L45.7 946.2C91.3 947.3 182.7 949.7 274.2 950.5C365.7 951.3 457.3 950.7 548.8 939.7C640.3 928.7 731.7 907.3 823 906.8C914.3 906.3 1005.7 926.7 1097 936.5C1188.3 946.3 1279.7 945.7 1371.2 949.3C1462.7 953 1554.3 961 1645.8 954.7C1737.3 948.3 1828.7 927.7 1874.3 917.3L1920 907L1920 1081L1874.3 1081C1828.7 1081 1737.3 1081 1645.8 1081C1554.3 1081 1462.7 1081 1371.2 1081C1279.7 1081 1188.3 1081 1097 1081C1005.7 1081 914.3 1081 823 1081C731.7 1081 640.3 1081 548.8 1081C457.3 1081 365.7 1081 274.2 1081C182.7 1081 91.3 1081 45.7 1081L0 1081Z" fill="#d53867"></path><path d="M0 1000L45.7 994.3C91.3 988.7 182.7 977.3 274.2 977.5C365.7 977.7 457.3 989.3 548.8 996.7C640.3 1004 731.7 1007 823 1009.7C914.3 1012.3 1005.7 1014.7 1097 1011.5C1188.3 1008.3 1279.7 999.7 1371.2 991.3C1462.7 983 1554.3 975 1645.8 974.8C1737.3 974.7 1828.7 982.3 1874.3 986.2L1920 990L1920 1081L1874.3 1081C1828.7 1081 1737.3 1081 1645.8 1081C1554.3 1081 1462.7 1081 1371.2 1081C1279.7 1081 1188.3 1081 1097 1081C1005.7 1081 914.3 1081 823 1081C731.7 1081 640.3 1081 548.8 1081C457.3 1081 365.7 1081 274.2 1081C182.7 1081 91.3 1081 45.7 1081L0 1081Z" fill="#c62368"></path></svg>